<svg width="24" height="24" viewBox="0 0 24 24" fill="none" xmlns="http://www.w3.org/2000/svg">
<path d="M9.36077 3.29341C9.6659 3.59853 9.74089 4.06496 9.54678 4.45034C9.04068 5.4552 8.75521 6.59086 8.75521 7.79608C8.75521 11.9102 12.0903 15.2453 16.2044 15.2453C17.4097 15.2453 18.5453 14.9598 19.5502 14.4537C19.9356 14.2596 20.402 14.3346 20.7071 14.6397C21.0122 14.9449 21.0872 15.4113 20.8931 15.7967C19.3396 18.8811 16.1428 21.0005 12.4492 21.0005C7.23056 21.0005 3 16.77 3 11.5513C3 7.8577 5.11941 4.6609 8.20384 3.1074C8.58923 2.9133 9.05565 2.98829 9.36077 3.29341ZM6.8217 6.67011C5.68637 7.97792 5 9.68482 5 11.5513C5 15.6654 8.33513 19.0005 12.4492 19.0005C14.3157 19.0005 16.0226 18.3141 17.3304 17.1788C16.9611 17.2227 16.5853 17.2453 16.2044 17.2453C10.9858 17.2453 6.75521 13.0147 6.75521 7.79608C6.75521 7.41523 6.77779 7.03947 6.8217 6.67011Z" fill="#090909"/>
</svg>
