<svg width="24" height="24" viewBox="0 0 24 24" fill="none" xmlns="http://www.w3.org/2000/svg">
<path d="M12 2.00049C12.5523 2.00049 13 2.4482 13 3.00049V4.00049C13 4.55277 12.5523 5.00049 12 5.00049C11.4477 5.00049 11 4.55277 11 4.00049V3.00049C11 2.4482 11.4477 2.00049 12 2.00049ZM19.0711 4.92941C19.4616 5.31994 19.4616 5.9531 19.0711 6.34363L18.364 7.05073C17.9735 7.44126 17.3403 7.44126 16.9498 7.05073C16.5593 6.66021 16.5593 6.02705 16.9498 5.63652L17.6569 4.92941C18.0474 4.53889 18.6806 4.53889 19.0711 4.92941ZM4.92893 4.92941C5.31945 4.53889 5.95262 4.53889 6.34314 4.92941L7.05025 5.63652C7.44077 6.02705 7.44077 6.66021 7.05025 7.05073C6.65972 7.44126 6.02656 7.44126 5.63603 7.05073L4.92893 6.34363C4.5384 5.9531 4.5384 5.31994 4.92893 4.92941ZM12 8.00049C9.79086 8.00049 8 9.79135 8 12.0005C8 14.2096 9.79086 16.0005 12 16.0005C14.2091 16.0005 16 14.2096 16 12.0005C16 9.79135 14.2091 8.00049 12 8.00049ZM6 12.0005C6 8.68678 8.68629 6.00049 12 6.00049C15.3137 6.00049 18 8.68678 18 12.0005C18 15.3142 15.3137 18.0005 12 18.0005C8.68629 18.0005 6 15.3142 6 12.0005ZM2 12.0005C2 11.4482 2.44772 11.0005 3 11.0005H4C4.55228 11.0005 5 11.4482 5 12.0005C5 12.5528 4.55228 13.0005 4 13.0005H3C2.44772 13.0005 2 12.5528 2 12.0005ZM19 12.0005C19 11.4482 19.4477 11.0005 20 11.0005H21C21.5523 11.0005 22 11.4482 22 12.0005C22 12.5528 21.5523 13.0005 21 13.0005H20C19.4477 13.0005 19 12.5528 19 12.0005ZM5.63603 16.9502C6.02656 16.5597 6.65972 16.5597 7.05025 16.9502C7.44077 17.3408 7.44077 17.9739 7.05025 18.3644L6.34314 19.0715C5.95262 19.4621 5.31945 19.4621 4.92893 19.0715C4.5384 18.681 4.5384 18.0479 4.92893 17.6573L5.63603 16.9502ZM16.9498 18.3644C16.5593 17.9739 16.5593 17.3408 16.9498 16.9502C17.3403 16.5597 17.9735 16.5597 18.364 16.9502L19.0711 17.6573C19.4616 18.0479 19.4616 18.681 19.0711 19.0715C18.6806 19.4621 18.0474 19.4621 17.6569 19.0715L16.9498 18.3644ZM12 19.0005C12.5523 19.0005 13 19.4482 13 20.0005V21.0005C13 21.5528 12.5523 22.0005 12 22.0005C11.4477 22.0005 11 21.5528 11 21.0005V20.0005C11 19.4482 11.4477 19.0005 12 19.0005Z" fill="#4F4F4F"/>
</svg>
