<svg width="41" height="11" viewBox="0 0 41 11" fill="none" xmlns="http://www.w3.org/2000/svg">
<path d="M35.2188 10.6381C34.4255 10.6381 33.6882 10.5121 33.0068 10.2601C32.3348 10.0081 31.7515 9.65347 31.2568 9.19614C30.7622 8.72947 30.3748 8.18347 30.0948 7.55814C29.8242 6.9328 29.6888 6.25147 29.6888 5.51414C29.6888 4.76747 29.8242 4.08614 30.0948 3.47014C30.3748 2.8448 30.7622 2.30347 31.2568 1.84614C31.7515 1.37947 32.3348 1.02014 33.0068 0.768137C33.6882 0.516137 34.4255 0.390137 35.2188 0.390137C36.0215 0.390137 36.7588 0.516137 37.4308 0.768137C38.1028 1.02014 38.6862 1.37947 39.1808 1.84614C39.6755 2.30347 40.0582 2.8448 40.3288 3.47014C40.6088 4.08614 40.7488 4.76747 40.7488 5.51414C40.7488 6.25147 40.6088 6.9328 40.3288 7.55814C40.0582 8.18347 39.6755 8.72947 39.1808 9.19614C38.6862 9.65347 38.1028 10.0081 37.4308 10.2601C36.7588 10.5121 36.0215 10.6381 35.2188 10.6381ZM35.2188 7.96414C35.5268 7.96414 35.8115 7.90814 36.0728 7.79614C36.3435 7.68414 36.5768 7.52547 36.7728 7.32014C36.9782 7.10547 37.1368 6.8488 37.2488 6.55014C37.3608 6.24214 37.4168 5.8968 37.4168 5.51414C37.4168 5.13147 37.3608 4.7908 37.2488 4.49214C37.1368 4.18414 36.9782 3.92747 36.7728 3.72214C36.5768 3.50747 36.3435 3.34414 36.0728 3.23214C35.8115 3.12014 35.5268 3.06414 35.2188 3.06414C34.9108 3.06414 34.6215 3.12014 34.3508 3.23214C34.0895 3.34414 33.8562 3.50747 33.6508 3.72214C33.4548 3.92747 33.3008 4.18414 33.1888 4.49214C33.0768 4.7908 33.0208 5.13147 33.0208 5.51414C33.0208 5.8968 33.0768 6.24214 33.1888 6.55014C33.3008 6.8488 33.4548 7.10547 33.6508 7.32014C33.8562 7.52547 34.0895 7.68414 34.3508 7.79614C34.6215 7.90814 34.9108 7.96414 35.2188 7.96414Z" fill="#090909"/>
<path d="M24.7531 10.6381C23.9597 10.6381 23.2271 10.5168 22.5551 10.2741C21.8924 10.0221 21.3137 9.66747 20.8191 9.21014C20.3337 8.7528 19.9557 8.21147 19.6851 7.58614C19.4144 6.9608 19.2791 6.27014 19.2791 5.51414C19.2791 4.75814 19.4144 4.06747 19.6851 3.44214C19.9557 2.8168 20.3384 2.27547 20.8331 1.81814C21.3277 1.3608 21.9111 1.0108 22.5831 0.768137C23.2644 0.516137 24.0111 0.390137 24.8231 0.390137C25.7937 0.390137 26.6571 0.55347 27.4131 0.880136C28.1784 1.2068 28.8084 1.67347 29.3031 2.28014L27.1891 4.14214C26.8811 3.78747 26.5451 3.52147 26.1811 3.34414C25.8264 3.15747 25.4297 3.06414 24.9911 3.06414C24.6271 3.06414 24.2957 3.12014 23.9971 3.23214C23.7077 3.34414 23.4604 3.50747 23.2551 3.72214C23.0497 3.9368 22.8911 4.19347 22.7791 4.49214C22.6671 4.7908 22.6111 5.13147 22.6111 5.51414C22.6111 5.87814 22.6671 6.21414 22.7791 6.52214C22.8911 6.8208 23.0497 7.07747 23.2551 7.29214C23.4604 7.5068 23.7031 7.6748 23.9831 7.79614C24.2724 7.90814 24.5944 7.96414 24.9491 7.96414C25.3224 7.96414 25.6864 7.90347 26.0411 7.78214C26.3957 7.65147 26.7737 7.43214 27.1751 7.12414L29.0231 9.39214C28.4257 9.79347 27.7444 10.1015 26.9791 10.3161C26.2137 10.5308 25.4717 10.6381 24.7531 10.6381ZM26.1531 8.97214V5.24814H29.0231V9.39214L26.1531 8.97214Z" fill="#090909"/>
<path d="M13.292 10.6381C12.4986 10.6381 11.7613 10.5121 11.08 10.2601C10.408 10.0081 9.82463 9.65347 9.32996 9.19614C8.8353 8.72947 8.44796 8.18347 8.16796 7.55814C7.8973 6.9328 7.76196 6.25147 7.76196 5.51414C7.76196 4.76747 7.8973 4.08614 8.16796 3.47014C8.44796 2.8448 8.8353 2.30347 9.32996 1.84614C9.82463 1.37947 10.408 1.02014 11.08 0.768137C11.7613 0.516137 12.4986 0.390137 13.292 0.390137C14.0946 0.390137 14.832 0.516137 15.504 0.768137C16.176 1.02014 16.7593 1.37947 17.254 1.84614C17.7486 2.30347 18.1313 2.8448 18.402 3.47014C18.682 4.08614 18.822 4.76747 18.822 5.51414C18.822 6.25147 18.682 6.9328 18.402 7.55814C18.1313 8.18347 17.7486 8.72947 17.254 9.19614C16.7593 9.65347 16.176 10.0081 15.504 10.2601C14.832 10.5121 14.0946 10.6381 13.292 10.6381ZM13.292 7.96414C13.6 7.96414 13.8846 7.90814 14.146 7.79614C14.4166 7.68414 14.65 7.52547 14.846 7.32014C15.0513 7.10547 15.21 6.8488 15.322 6.55014C15.434 6.24214 15.49 5.8968 15.49 5.51414C15.49 5.13147 15.434 4.7908 15.322 4.49214C15.21 4.18414 15.0513 3.92747 14.846 3.72214C14.65 3.50747 14.4166 3.34414 14.146 3.23214C13.8846 3.12014 13.6 3.06414 13.292 3.06414C12.984 3.06414 12.6946 3.12014 12.424 3.23214C12.1626 3.34414 11.9293 3.50747 11.724 3.72214C11.528 3.92747 11.374 4.18414 11.262 4.49214C11.15 4.7908 11.094 5.13147 11.094 5.51414C11.094 5.8968 11.15 6.24214 11.262 6.55014C11.374 6.8488 11.528 7.10547 11.724 7.32014C11.9293 7.52547 12.1626 7.68414 12.424 7.79614C12.6946 7.90814 12.984 7.96414 13.292 7.96414Z" fill="#090909"/>
<path d="M0 10.4143V0.614258H3.304V7.85226H7.728V10.4143H0Z" fill="#090909"/>
</svg>
